<?xml version="1.0" encoding="iso-8859-1"?><!-- Generator: Adobe Illustrator 16.0.0, SVG Export Plug-In . SVG Version: 6.00 Build 0) --><!DOCTYPE svg PUBLIC "-//W3C//DTD SVG 1.1//EN" "http://www.w3.org/Graphics/SVG/1.1/DTD/svg11.dtd"><svg version="1.1" id="Layer_1" xmlns="http://www.w3.org/2000/svg" xmlns:xlink="http://www.w3.org/1999/xlink" x="0px" y="0px" width="192.756px" height="192.756px" viewBox="0 0 192.756 192.756" style="enable-background:new 0 0 192.756 192.756;" xml:space="preserve"><g><polygon style="fill-rule:evenodd;clip-rule:evenodd;fill:#FFFFFF;" points="0,0 192.756,0 192.756,192.756 0,192.756 0,0	"/><polygon style="fill-rule:evenodd;clip-rule:evenodd;fill:#FFFFFF;" points="72.965,52.752 72.676,33.059 84.394,26.196	101.793,14.479 108.945,14.188 116.387,22.187 120.396,48.765 114.961,58.478 92.392,57.898 72.965,52.752	"/><polygon style="fill-rule:evenodd;clip-rule:evenodd;fill:#FFFFFF;" points="49.818,109.05 55.811,92.185 67.529,78.194	73.522,66.187 76.106,62.198 118.947,55.626 127.525,69.06 151.52,126.472 143.23,136.741 121.51,173.056 116.387,174.191	76.664,175.327 48.95,144.472 44.382,118.763 49.818,109.05	"/><path style="fill-rule:evenodd;clip-rule:evenodd;fill:#F6D330;" d="M104.668,65.34c0,0-1.426-0.29,2.562-1.159	c4.01-0.846,4.031-1.693,5.145-2.852c1.137-1.136,1.717-3.721,1.717-6.572c0-2.851,1.426-11.139,1.135-13.411	c-0.266-2.295-5.146-10.85-7.129-12.008c-2.004-1.136-24.283-3.142-24.283-3.142l-6.862,5.437l-5.146,4.834l1.158,15.439	c0,0-1.448,4.856-1.158,6.839c0.29,2.005,3.163,4.3,4.299,5.436c1.136,1.159,5.414,5.748,6.839,7.151	c1.448,1.426,1.738,2.852,5.146,1.715c3.431-1.136,5.436-1.136,8.021-3.141C98.674,67.901,104.668,65.34,104.668,65.34	L104.668,65.34z"/><path style="fill-rule:evenodd;clip-rule:evenodd;fill:#FFFFFF;" d="M91.523,41.057c0.869-2.295,2.005-6.572,3.988-7.998	c2.004-1.426,6.305-2.606,8.868-2.295c2.584,0.29,7.418,2.852,8.576,4.856c1.137,2.005,1.137,10.003,1.137,10.003l-0.58,6.572	l-3.988-0.289l-8.576-3.432h-1.426c0,0-1.426,0.557-5.726-1.715C89.518,44.465,90.654,43.351,91.523,41.057L91.523,41.057z"/><path style="fill-rule:evenodd;clip-rule:evenodd;fill:#FFFFFF;" d="M82.389,47.339c0.134-0.134,0.401-0.312,0.758-0.513	c1.737-0.958,5.524-2.361,5.524-2.361s3.698-9.401,0.557-13.122c-3.119-3.72-9.98-3.141-9.98-3.141s-7.418,4.278-7.151,5.993	c0.29,1.716,0.579,7.708,0.869,8.555c0.268,0.869,1.426,10.003,1.426,10.003l2.562-1.136l3.721-2.852	C80.674,48.765,81.542,48.208,82.389,47.339L82.389,47.339z"/><path style="fill-rule:evenodd;clip-rule:evenodd;fill:#F6D330;" d="M136.949,133.622c0,0,1.805,0.135,4.143,0.312	c0.602,0.045,1.203,0.066,1.805,0.089c3.074,0.111,5.771,0.579,8.645,0.936c1.895,0.224,5.035,1.427,5.258,3.81	c0.312,3.521-0.713,7.396,2.271,8.845c3.053,2.072,9.869,6.862,9.869,6.862l2.006,3.697l-5.992,5.437l-29.43,17.711l-13.412-4.567	v-10.85l0.557-14.569l-1.426-13.145l2.273-5.146l5.725-1.716L136.949,133.622L136.949,133.622z"/><path style="fill-rule:evenodd;clip-rule:evenodd;fill:#F6D330;" d="M51.846,127.206c-0.29-0.268-5.503,1.271-5.837,1.337	c-2.428,0.356-5.502,2.027-5.502,4.679c0,1.359-0.111,2.763-0.735,3.988c-0.49,0.957-1.604,2.405-1.582,2.718	c-0.379,1.047-1.069,2.517-2.027,3.141c-1.114,0.112-6.06,0.558-6.06,0.558h-4.3l-2.562,3.118l2.005,8.311l-0.58,6.55l-1.983,7.44	l4.834,2.562l36.581,9.713l8.288-2.562l4.277-10.582l-0.869-3.988l-3.987-7.998C71.807,156.19,54.43,130.949,51.846,127.206	L51.846,127.206z"/><path style="fill-rule:evenodd;clip-rule:evenodd;" d="M70.47,37.536C69.869,17.598,77.644,8.797,93.795,8.508	c16.13-0.312,26.244,8.198,28.316,19.36c2.049,11.139,0.869,25.82,4.99,33.44c4.1,7.641,6.729,13.5,13.791,22.3	c7.039,8.8,11.428,17.756,13.479,28.627c2.07,10.85,3.23,15.974-2.051,21.565c-5.279,5.569-14.658,14.659-21.699,4.389	c-3.541-5.146-3.92-11.54,2.051-12.898c3.809-0.892,6.549-0.602,9.379,0.868c2.852,1.471,3.52,0.779,0.111-1.76	c-3.432-2.54-4.121-0.201-2.941-4.3c1.182-4.1,2.719-11.474-0.49-19.583c-1.492-3.742-6.549-13.99-11.295-16.508	c-0.424-0.245-1.67-0.757-0.824,0.29c1.27,1.582,8.109,11.651,10.047,17.644c2.072,6.439,2.361,12.588,1.293,16.486	c-1.068,3.921-2.941,5.48-5.191,5.48s-4.299,1.069-4.299-4.099c0-5.191,0.535-13.011-2.25-19.628	c-2.785-6.594-6.172-11.139-6.906-13.924c-0.713-2.785-2.34-10.27-5.703-14.525c-3.387-4.255-4.857-7.04-3.098-11.896	c1.76-4.834,0.445-6.149-3.074-7.174c-3.52-1.024-8.221-2.495-9.379-4.856c-1.181-2.339-0.445-7.04,2.184-8.198	c2.65-1.181,7.039,0.423,7.195,3.81c0.156,3.364-1.471,5.124-1.023,5.859c0.445,0.735,2.783,1.916,3.965,0.602	c1.158-1.337,1.471-5.437,0.289-9.246c-1.182-3.81-1.76-6.461-6.016-7.33c-4.254-0.892-6.17-0.602-8.22,2.049	c-2.05,2.629-2.94,6.884-2.339,9.981c0.579,3.074-0.602,1.314-2.651,1.158c-2.05-0.134-1.47-0.29-3.52-0.134	c-2.05,0.134-1.314-1.181-1.471-3.386c-0.134-2.206-0.423-6.75-3.52-8.51c-3.075-1.76-8.354,0.29-8.221,7.642	c0.156,7.33,2.651,10.849,4.122,8.198c1.47-2.629,0.735-1.314-0.735-2.495c-1.47-1.158-2.495-6.015-0.891-7.463	c1.626-1.47,3.52-1.47,4.567-0.601c1.025,0.891,2.629,3.832,2.339,5.725c-0.29,1.916-0.446,2.05-2.339,3.386	c-1.916,1.314-2.651,2.495-4.856,3.943c-2.206,1.47-3.074,4.857-1.314,5.726c1.76,0.891,1.916,0.735,3.364,2.941	c1.47,2.206,3.965,3.23,10.136,2.206c6.149-1.025,8.688-2.495,13.345-4.122c3.387-1.159,2.205-1.025,3.387-2.339	c1.158-1.314,3.074,0.579,1.314,1.76c-1.76,1.181-5.727,2.339-8.666,3.364c-2.919,1.047-6.305,3.966-12.454,3.676	c-6.171-0.29-1.916-0.156-3.832-0.29c-1.894-0.156-2.785,0.134-0.735,1.604c2.072,1.471,1.916,1.916,3.676,2.495	c1.76,0.602,4.099,0.602,6.906-0.423c2.785-1.047,9.826-4.122,12.031-5.592c2.184-1.47,3.943,0.446,1.76,1.916	c-2.205,1.47-2.807,1.025-4.857,2.339c-2.049,1.337-5.859,3.52-8.354,5.881c-2.495,2.339-3.074,2.495-6.171,2.629	c-3.074,0.156-4.99-3.074-6.305-4.544c-1.314-1.471-1.181-2.339-2.785-4.1c-1.604-1.76-1.76-1.337-2.05,0.579	s-2.495,6.75-4.411,9.981c-1.894,3.23-2.05,7.196-1.76,9.981c0.29,2.785-0.445,3.074-2.628,6.304	c-2.206,3.23-5.882,12.765-6.461,15.84c-0.58,3.074-1.314,9.401-1.025,13.055c0.29,3.676-0.735,4.411-3.386,1.916	c-2.629-2.495-3.521-5.28-3.364-8.956c0.134-3.141,0.557-5.347,0.958-6.505c0.401-1.158,0.022-1.96-0.824-0.534	c-1.805,3.118-1.894,8.51-1.448,10.426c0.423,1.894,0.579,5.28,5.414,9.824c4.856,4.545,11.896,10.85,17.756,15.105	c5.881,4.255,7.931,9.535-0.735,13.345c5.436,7.352,8.376,11.161,6.015,15.995c4.856-2.785,2.985-9.356,0.646-11.117	c-2.362-1.76-0.936-3.118,1.114-1.781c2.05,1.314,2.785,3.943,10.872,3.809c8.064-0.155,16.753-0.957,21.611-8.02	c4.834-7.04,5.77-1.114,4.588,3.008c-1.158,4.099-4.055,13.367,0.49,12.498c0.58-5.437,1.916-10.137,1.916-15.996	c0-5.882,0.58-8.711,0.135-17.221c-0.447-8.199,3.096-8.756,6.75-8.756c3.676,0,2.494,2.361,0.156,2.205	c-2.361-0.155-4.836,0.736-4.99,6.751c-0.156,6.015,0,5.436,1.023,10.85c1.025,5.436,1.182,7.04,0.291,13.055	c-0.869,6.016-1.605,9.245,2.361,12.922c3.943,3.676,9.957,2.629,13.055,0.289c3.074-2.339,8.934-7.774,14.213-9.535	c5.303-1.76,10.873-3.074,13.812-6.015c2.92-2.94,2.184-4.99-0.891-6.595c-3.074-1.626-6.016-0.891-8.354-3.52	c-2.363-2.651-3.521-8.511-2.652-11.607c0.891-3.074,1.916-1.76,1.916,0.446c0,2.205,0.135,4.255,2.34,7.039	c2.205,2.785,4.254,4.122,7.775,6.305c3.52,2.206,5.725,5.726,1.314,8.822c-4.389,3.074-6.885,4.835-10.561,6.305	c-3.654,1.471-9.668,4.99-13.346,8.645c-3.676,3.676-5.725,6.906-12.92,6.906c-7.174,0-10.471-1.738-12.609-6.016	c-1.471-2.94-2.207-2.494-5.57-2.65c-3.387-0.134-14.682-0.29-23.481-0.134c-8.8,0.134-11.74,1.604-15.706,4.834	c-3.943,3.23-5.414,5.726-12.899,3.23s-11.451-5.28-22.59-7.485c-11.162-2.205-5.146-1.181-11.897-2.651	c-6.75-1.448-6.305-4.679-5.413-7.329c0.869-2.629,3.074-6.751,1.158-12.164c-1.894-5.437-1.158-11.006,3.965-11.006	c5.146,0,9.981,1.025,12.03-5.726c2.05-6.75,2.651-1.47,2.05,0.29c-0.579,1.76-0.869,6.594-5.414,7.33	c-4.545,0.734-5.569-0.29-8.377-0.29c-2.784,0-3.943,1.916-2.495,5.146c1.47,3.229,3.096,6.594,2.807,9.379	c-0.312,2.784-0.602,3.81-2.651,6.46c-2.05,2.629-1.76,3.966,1.916,4.835c3.653,0.892,10.27,2.651,16.419,4.122	c6.171,1.447,6.617,1.447,17.31,4.255c10.716,2.784,13.657-2.206,14.526-8.221c0.891-6.016-3.23-11.741-7.04-17.467	S60.2,140.396,55.209,134.38c-4.99-6.015-7.931-6.461-10.426-5.146c-2.496,1.337-2.941,1.047-3.075-2.339	c-0.156-3.364-0.446-5.569,2.339-10.56c2.785-4.99,5.28-10.427,8.221-18.781c2.94-8.354,5.569-9.98,10.56-17.176	c4.991-7.173,2.785-4.389,6.305-9.223c3.52-4.856,2.495-3.966,2.206-11.607C71.049,51.928,70.76,47.517,70.47,37.536L70.47,37.536z M56.457,97.197c0.758,0.914,1.827-1.247,2.941-2.071c1.002-0.914,1.426-2.229,1.203-3.498c-0.111-0.69-1.226-0.468-1.448-0.223	c-0.69,0.69-0.535,1.805-1.025,2.763C57.571,95.326,55.7,96.262,56.457,97.197L56.457,97.197z M119.527,66.542	c1.582,1.337,2.562,2.496,3.43,0.513c0.893-1.983,0.893-2.785-1.246-3.587c-2.117-0.825-3.074-1.693-4.033-2.785	c-0.957-1.114-1.291,0.78-0.512,2.629C118.123,65.585,118.68,65.852,119.527,66.542L119.527,66.542z M86.466,48.341	c-1.092-0.223-2.406-0.134-3.142,0.735c-0.29,0.29-0.156,1.114,0.356,1.337c0.668,0.29,1.114-0.378,1.248-0.891	c0.067-0.223,0.156-0.512,0.379-0.579c0.29-0.156,0.713-0.022,1.025-0.156C86.689,48.653,86.555,48.341,86.466,48.341	L86.466,48.341z M91.657,48.542c0.446,0.668,1.248,0.668,1.916,0.958c0.356,0.156,1.092,0.379,1.314-0.134	c0.513-1.626-1.693-1.114-2.718-1.114C91.947,48.252,91.434,48.186,91.657,48.542L91.657,48.542z M102.352,41.435	c1.002,0.044,2.361,1.827,2.494,3.899c0.021,0.312,0.869,0.289,1.047-0.022c0.469-0.824,0.135-1.738-0.088-2.718	c-0.18-0.802-1.137-1.626-1.939-1.983c-0.535-0.268-1.092-0.356-1.805-0.268C101.883,40.433,101.26,41.368,102.352,41.435	L102.352,41.435z M80.496,40.923c-0.914,0.066-0.579,0.779-0.535,1.358c1.27,0.713,1.381,2.317,1.648,3.587	c0.022,0.49,0.757,0.268,0.824,0.112c0.557-1.025-0.134-2.183-0.378-3.386c-0.223-0.624-0.646-1.337-1.226-1.76	C80.741,40.745,80.584,40.923,80.496,40.923L80.496,40.923z M108.521,18.444c-0.914-0.735-2.34-1.025-2.762,0.178	c-0.445,1.025-0.268,2.072-0.514,3.186c0,0.356-0.445,0.445-0.689,0.779c-0.357,0.423-0.268,0.958-0.09,1.114	c0.848,0.869,2.406-0.847,3.543-1.448c0.846-0.535,2.07,0.156,3.008-0.445c0.266-0.178,0.355-0.602,0.088-0.936	C110.504,19.825,109.457,19.224,108.521,18.444L108.521,18.444z"/><path style="fill-rule:evenodd;clip-rule:evenodd;" d="M134.943,135.093c0.135-0.602,0.445-1.782,1.025-1.96	c0.201-0.067,0.379,0.022,0.445,0.223c0.133,0.378-0.268,2.54-0.111,3.03c0.178,0.512,0.779,0.445,1.203,0.312	c1.002-0.335,1.582-1.515,1.537-1.626c0-0.045-0.023-0.045-0.066-0.045c-0.156,0.045-0.291,0.602-0.736,0.734	c-0.289,0.09-0.512,0.045-0.602-0.244c-0.088-0.312,0.291-2.54,0.111-3.053c-0.154-0.512-0.668-0.646-1.158-0.49	c-1.092,0.357-1.559,2.027-1.848,3.008h-0.023l0.156-2.295l-1.359,0.446l-0.066,4.745l1.27-0.424	C134.744,136.63,134.787,135.694,134.943,135.093L134.943,135.093z"/><path style="fill-rule:evenodd;clip-rule:evenodd;" d="M140.826,135.605c1.09-0.356,1.58-1.648,1.535-1.805	c-0.021-0.044-0.043-0.067-0.088-0.067c-0.09,0.045-0.289,0.78-0.914,0.98c-0.268,0.09-0.512,0.022-0.578-0.155	c-0.09-0.268-0.023-0.735-0.023-1.137l0.045-2.139l1.492-0.49l-0.021-0.513l-1.492,0.49l0.066-2.027l-1.336,0.758l-0.068,4.522	c0,0.49-0.043,0.913,0.045,1.137C139.666,135.739,140.268,135.806,140.826,135.605L140.826,135.605z"/></g></svg>